<?xml version="1.0" encoding="UTF-8" standalone="no"?>
<!DOCTYPE svg PUBLIC "-//W3C//DTD SVG 1.1//EN"
 "http://www.w3.org/Graphics/SVG/1.1/DTD/svg11.dtd">
<!-- Generated by graphviz version 2.43.0 (0)
 -->
<!-- Title: %3 Pages: 1 -->
<svg width="1008pt" height="696pt"
 viewBox="0.00 0.00 1008.00 696.23" xmlns="http://www.w3.org/2000/svg" xmlns:xlink="http://www.w3.org/1999/xlink">
<g id="graph0" class="graph" transform="scale(4.01 4.01) rotate(0) translate(4 2790.27)">
<title>%3</title>
<polygon fill="white" stroke="transparent" points="-4,4 -4,-2790.27 4041.56,-2790.27 4041.56,4 -4,4"/>
<!-- HELLO&#45;WOLRD -->
<g id="node1" class="node">
<title>HELLO&#45;WOLRD</title>
<polygon fill="#e94762" stroke="transparent" points="2250,-807 2056,-807 2056,-771 2250,-771 2250,-807"/>
<text text-anchor="middle" x="2153" y="-782.8" font-family="Helvetica,sans-Serif" font-size="24.00">HELLO&#45;WOLRD</text>
</g>
<!-- github.com/gin&#45;contrib/\n\n\n\n\nsse -->
<g id="node2" class="node">
<title>github.com/gin&#45;contrib/\n\n\n\n\nsse</title>
<text text-anchor="middle" x="2888.66" y="-1799.01" font-family="Helvetica,sans-Serif" font-size="24.00">github.com/gin&#45;contrib/</text>
<text text-anchor="middle" x="2888.66" y="-1661.01" font-family="Helvetica,sans-Serif" font-size="24.00">sse</text>
</g>
<!-- github.com/stretchr/\n\n\n\n\ntestify -->
<g id="node3" class="node">
<title>github.com/stretchr/\n\n\n\n\ntestify</title>
<text text-anchor="middle" x="3249.83" y="-2011.76" font-family="Helvetica,sans-Serif" font-size="24.00">github.com/stretchr/</text>
<text text-anchor="middle" x="3249.83" y="-1873.76" font-family="Helvetica,sans-Serif" font-size="24.00">testify</text>
</g>
<!-- github.com/gin&#45;contrib/\n\n\n\n\nsse&#45;&gt;github.com/stretchr/\n\n\n\n\ntestify -->
<g id="edge1" class="edge">
<title>github.com/gin&#45;contrib/\n\n\n\n\nsse&#45;&gt;github.com/stretchr/\n\n\n\n\ntestify</title>
<path fill="none" stroke="black" d="M3034.78,-1822.28C3059.46,-1836.82 3085.03,-1851.88 3109.55,-1866.33"/>
<polygon fill="black" stroke="black" points="3107.79,-1869.35 3118.18,-1871.41 3111.34,-1863.32 3107.79,-1869.35"/>
</g>
<!-- gopkg.in/yaml.v2 -->
<g id="node10" class="node">
<title>gopkg.in/yaml.v2</title>
<text text-anchor="middle" x="2788.29" y="-2088.98" font-family="Helvetica,sans-Serif" font-size="24.00">gopkg.in/yaml.v2</text>
</g>
<!-- github.com/stretchr/\n\n\n\n\ntestify&#45;&gt;gopkg.in/yaml.v2 -->
<g id="edge27" class="edge">
<title>github.com/stretchr/\n\n\n\n\ntestify&#45;&gt;gopkg.in/yaml.v2</title>
<path fill="none" stroke="black" d="M3118.19,-1990.67C3032.22,-2017.9 2923.6,-2052.31 2855.01,-2074.04"/>
<polygon fill="black" stroke="black" points="2853.67,-2070.8 2845.19,-2077.16 2855.78,-2077.47 2853.67,-2070.8"/>
</g>
<!-- github.com/davecgh/\n\n\n\n\ngo&#45;spew -->
<g id="node17" class="node">
<title>github.com/davecgh/\n\n\n\n\ngo&#45;spew</title>
<text text-anchor="middle" x="3678.05" y="-1728.96" font-family="Helvetica,sans-Serif" font-size="24.00">github.com/davecgh/</text>
<text text-anchor="middle" x="3678.05" y="-1590.96" font-family="Helvetica,sans-Serif" font-size="24.00">go&#45;spew</text>
</g>
<!-- github.com/stretchr/\n\n\n\n\ntestify&#45;&gt;github.com/davecgh/\n\n\n\n\ngo&#45;spew -->
<g id="edge24" class="edge">
<title>github.com/stretchr/\n\n\n\n\ntestify&#45;&gt;github.com/davecgh/\n\n\n\n\ngo&#45;spew</title>
<path fill="none" stroke="black" d="M3380.05,-1862.96C3430.4,-1829.71 3488.09,-1791.6 3539.23,-1757.84"/>
<polygon fill="black" stroke="black" points="3541.29,-1760.67 3547.7,-1752.24 3537.43,-1754.83 3541.29,-1760.67"/>
</g>
<!-- github.com/pmezard/\n\n\n\n\ngo&#45;difflib -->
<g id="node22" class="node">
<title>github.com/pmezard/\n\n\n\n\ngo&#45;difflib</title>
<text text-anchor="middle" x="3675.74" y="-2549.82" font-family="Helvetica,sans-Serif" font-size="24.00">github.com/pmezard/</text>
<text text-anchor="middle" x="3675.74" y="-2411.82" font-family="Helvetica,sans-Serif" font-size="24.00">go&#45;difflib</text>
</g>
<!-- github.com/stretchr/\n\n\n\n\ntestify&#45;&gt;github.com/pmezard/\n\n\n\n\ngo&#45;difflib -->
<g id="edge25" class="edge">
<title>github.com/stretchr/\n\n\n\n\ntestify&#45;&gt;github.com/pmezard/\n\n\n\n\ngo&#45;difflib</title>
<path fill="none" stroke="black" d="M3318.02,-2035.11C3395.36,-2132.81 3521.06,-2291.61 3601,-2392.61"/>
<polygon fill="black" stroke="black" points="3598.45,-2395.02 3607.4,-2400.69 3603.93,-2390.67 3598.45,-2395.02"/>
</g>
<!-- github.com/stretchr/\n\n\n\n\nobjx -->
<g id="node23" class="node">
<title>github.com/stretchr/\n\n\n\n\nobjx</title>
<text text-anchor="middle" x="3906.06" y="-2252.34" font-family="Helvetica,sans-Serif" font-size="24.00">github.com/stretchr/</text>
<text text-anchor="middle" x="3906.06" y="-2114.34" font-family="Helvetica,sans-Serif" font-size="24.00">objx</text>
</g>
<!-- github.com/stretchr/\n\n\n\n\ntestify&#45;&gt;github.com/stretchr/\n\n\n\n\nobjx -->
<g id="edge26" class="edge">
<title>github.com/stretchr/\n\n\n\n\ntestify&#45;&gt;github.com/stretchr/\n\n\n\n\nobjx</title>
<path fill="none" stroke="black" d="M3381.44,-1997.21C3492.53,-2037.94 3651.2,-2096.1 3764.9,-2137.79"/>
<polygon fill="black" stroke="black" points="3763.79,-2141.11 3774.38,-2141.26 3766.2,-2134.54 3763.79,-2141.11"/>
</g>
<!-- github.com/gin&#45;gonic/\n\n\n\n\ngin -->
<g id="node4" class="node">
<title>github.com/gin&#45;gonic/\n\n\n\n\ngin</title>
<text text-anchor="middle" x="2650.69" y="-1564.83" font-family="Helvetica,sans-Serif" font-size="24.00">github.com/gin&#45;gonic/</text>
<text text-anchor="middle" x="2650.69" y="-1426.83" font-family="Helvetica,sans-Serif" font-size="24.00">gin</text>
</g>
<!-- github.com/gin&#45;gonic/\n\n\n\n\ngin&#45;&gt;github.com/gin&#45;contrib/\n\n\n\n\nsse -->
<g id="edge2" class="edge">
<title>github.com/gin&#45;gonic/\n\n\n\n\ngin&#45;&gt;github.com/gin&#45;contrib/\n\n\n\n\nsse</title>
<path fill="none" stroke="black" d="M2738.28,-1588.23C2756.42,-1606.08 2775.6,-1624.95 2793.98,-1643.03"/>
<polygon fill="black" stroke="black" points="2791.66,-1645.67 2801.25,-1650.19 2796.57,-1640.68 2791.66,-1645.67"/>
</g>
<!-- github.com/gin&#45;gonic/\n\n\n\n\ngin&#45;&gt;github.com/stretchr/\n\n\n\n\ntestify -->
<g id="edge7" class="edge">
<title>github.com/gin&#45;gonic/\n\n\n\n\ngin&#45;&gt;github.com/stretchr/\n\n\n\n\ntestify</title>
<path fill="none" stroke="black" d="M2766.21,-1588.2C2869.52,-1665.27 3020.53,-1777.91 3126.24,-1856.77"/>
<polygon fill="black" stroke="black" points="3124.3,-1859.69 3134.41,-1862.86 3128.48,-1854.08 3124.3,-1859.69"/>
</g>
<!-- github.com/go&#45;playground/\n\n\n\n\nvalidator/v10 -->
<g id="node5" class="node">
<title>github.com/go&#45;playground/\n\n\n\n\nvalidator/v10</title>
<text text-anchor="middle" x="2091.01" y="-1948.84" font-family="Helvetica,sans-Serif" font-size="24.00">github.com/go&#45;playground/</text>
<text text-anchor="middle" x="2091.01" y="-1810.84" font-family="Helvetica,sans-Serif" font-size="24.00">validator/v10</text>
</g>
<!-- github.com/gin&#45;gonic/\n\n\n\n\ngin&#45;&gt;github.com/go&#45;playground/\n\n\n\n\nvalidator/v10 -->
<g id="edge3" class="edge">
<title>github.com/gin&#45;gonic/\n\n\n\n\ngin&#45;&gt;github.com/go&#45;playground/\n\n\n\n\nvalidator/v10</title>
<path fill="none" stroke="black" d="M2525.08,-1588.21C2435.86,-1649.43 2316.21,-1731.53 2225.12,-1794.02"/>
<polygon fill="black" stroke="black" points="2222.95,-1791.28 2216.68,-1799.82 2226.91,-1797.05 2222.95,-1791.28"/>
</g>
<!-- github.com/golang/\n\n\n\n\nprotobuf -->
<g id="node6" class="node">
<title>github.com/golang/\n\n\n\n\nprotobuf</title>
<text text-anchor="middle" x="2532.45" y="-1139.59" font-family="Helvetica,sans-Serif" font-size="24.00">github.com/golang/</text>
<text text-anchor="middle" x="2532.45" y="-1001.59" font-family="Helvetica,sans-Serif" font-size="24.00">protobuf</text>
</g>
<!-- github.com/gin&#45;gonic/\n\n\n\n\ngin&#45;&gt;github.com/golang/\n\n\n\n\nprotobuf -->
<g id="edge4" class="edge">
<title>github.com/gin&#45;gonic/\n\n\n\n\ngin&#45;&gt;github.com/golang/\n\n\n\n\nprotobuf</title>
<path fill="none" stroke="black" d="M2626.76,-1415.97C2607.16,-1345.48 2579.45,-1245.81 2559.14,-1172.76"/>
<polygon fill="black" stroke="black" points="2562.5,-1171.78 2556.45,-1163.08 2555.75,-1173.65 2562.5,-1171.78"/>
</g>
<!-- github.com/json&#45;iterator/\n\n\n\n\ngo -->
<g id="node7" class="node">
<title>github.com/json&#45;iterator/\n\n\n\n\ngo</title>
<text text-anchor="middle" x="3208.63" y="-1466.54" font-family="Helvetica,sans-Serif" font-size="24.00">github.com/json&#45;iterator/</text>
<text text-anchor="middle" x="3208.63" y="-1328.54" font-family="Helvetica,sans-Serif" font-size="24.00">go</text>
</g>
<!-- github.com/gin&#45;gonic/\n\n\n\n\ngin&#45;&gt;github.com/json&#45;iterator/\n\n\n\n\ngo -->
<g id="edge5" class="edge">
<title>github.com/gin&#45;gonic/\n\n\n\n\ngin&#45;&gt;github.com/json&#45;iterator/\n\n\n\n\ngo</title>
<path fill="none" stroke="black" d="M2790.76,-1477.35C2866.21,-1464.06 2959.87,-1447.56 3039.38,-1433.56"/>
<polygon fill="black" stroke="black" points="3040.26,-1436.95 3049.5,-1431.77 3039.05,-1430.06 3040.26,-1436.95"/>
</g>
<!-- github.com/mattn/\n\n\n\n\ngo&#45;isatty -->
<g id="node8" class="node">
<title>github.com/mattn/\n\n\n\n\ngo&#45;isatty</title>
<text text-anchor="middle" x="2186.83" y="-1212.01" font-family="Helvetica,sans-Serif" font-size="24.00">github.com/mattn/</text>
<text text-anchor="middle" x="2186.83" y="-1074.01" font-family="Helvetica,sans-Serif" font-size="24.00">go&#45;isatty</text>
</g>
<!-- github.com/gin&#45;gonic/\n\n\n\n\ngin&#45;&gt;github.com/mattn/\n\n\n\n\ngo&#45;isatty -->
<g id="edge6" class="edge">
<title>github.com/gin&#45;gonic/\n\n\n\n\ngin&#45;&gt;github.com/mattn/\n\n\n\n\ngo&#45;isatty</title>
<path fill="none" stroke="black" d="M2537.51,-1415.94C2468.05,-1363.1 2379.12,-1295.46 2308.19,-1241.52"/>
<polygon fill="black" stroke="black" points="2310.16,-1238.61 2300.08,-1235.34 2305.92,-1244.18 2310.16,-1238.61"/>
</g>
<!-- github.com/ugorji/\n\n\n\n\ngo/codec -->
<g id="node9" class="node">
<title>github.com/ugorji/\n\n\n\n\ngo/codec</title>
<text text-anchor="middle" x="2475" y="-834.06" font-family="Helvetica,sans-Serif" font-size="24.00">github.com/ugorji/</text>
<text text-anchor="middle" x="2475" y="-696.06" font-family="Helvetica,sans-Serif" font-size="24.00">go/codec</text>
</g>
<!-- github.com/gin&#45;gonic/\n\n\n\n\ngin&#45;&gt;github.com/ugorji/\n\n\n\n\ngo/codec -->
<g id="edge8" class="edge">
<title>github.com/gin&#45;gonic/\n\n\n\n\ngin&#45;&gt;github.com/ugorji/\n\n\n\n\ngo/codec</title>
<path fill="none" stroke="black" d="M2629.93,-1415.69C2596.9,-1278.3 2532.6,-1010.84 2498.13,-867.48"/>
<polygon fill="black" stroke="black" points="2501.45,-866.28 2495.7,-857.38 2494.64,-867.92 2501.45,-866.28"/>
</g>
<!-- github.com/gin&#45;gonic/\n\n\n\n\ngin&#45;&gt;gopkg.in/yaml.v2 -->
<g id="edge9" class="edge">
<title>github.com/gin&#45;gonic/\n\n\n\n\ngin&#45;&gt;gopkg.in/yaml.v2</title>
<path fill="none" stroke="black" d="M2670.69,-1588.28C2702.22,-1724.16 2761.9,-1981.42 2781.71,-2066.83"/>
<polygon fill="black" stroke="black" points="2778.36,-2067.87 2784.03,-2076.82 2785.18,-2066.29 2778.36,-2067.87"/>
</g>
<!-- github.com/go&#45;playground/\n\n\n\n\nlocales -->
<g id="node11" class="node">
<title>github.com/go&#45;playground/\n\n\n\n\nlocales</title>
<text text-anchor="middle" x="1463.12" y="-1822.83" font-family="Helvetica,sans-Serif" font-size="24.00">github.com/go&#45;playground/</text>
<text text-anchor="middle" x="1463.12" y="-1684.83" font-family="Helvetica,sans-Serif" font-size="24.00">locales</text>
</g>
<!-- github.com/go&#45;playground/\n\n\n\n\nvalidator/v10&#45;&gt;github.com/go&#45;playground/\n\n\n\n\nlocales -->
<g id="edge13" class="edge">
<title>github.com/go&#45;playground/\n\n\n\n\nvalidator/v10&#45;&gt;github.com/go&#45;playground/\n\n\n\n\nlocales</title>
<path fill="none" stroke="black" d="M1919.44,-1851.61C1834.22,-1834.51 1731.24,-1813.84 1644.69,-1796.47"/>
<polygon fill="black" stroke="black" points="1645.25,-1793.02 1634.76,-1794.48 1643.87,-1799.88 1645.25,-1793.02"/>
</g>
<!-- github.com/go&#45;playground/\n\n\n\n\nuniversal&#45;translator -->
<g id="node13" class="node">
<title>github.com/go&#45;playground/\n\n\n\n\nuniversal&#45;translator</title>
<text text-anchor="middle" x="1814.32" y="-1768.74" font-family="Helvetica,sans-Serif" font-size="24.00">github.com/go&#45;playground/</text>
<text text-anchor="middle" x="1814.32" y="-1630.74" font-family="Helvetica,sans-Serif" font-size="24.00">universal&#45;translator</text>
</g>
<!-- github.com/go&#45;playground/\n\n\n\n\nvalidator/v10&#45;&gt;github.com/go&#45;playground/\n\n\n\n\nuniversal&#45;translator -->
<g id="edge14" class="edge">
<title>github.com/go&#45;playground/\n\n\n\n\nvalidator/v10&#45;&gt;github.com/go&#45;playground/\n\n\n\n\nuniversal&#45;translator</title>
<path fill="none" stroke="black" d="M1958.74,-1799.95C1957.61,-1799.21 1956.48,-1798.47 1955.34,-1797.73"/>
<polygon fill="black" stroke="black" points="1956.94,-1794.6 1946.65,-1792.07 1953.12,-1800.46 1956.94,-1794.6"/>
</g>
<!-- github.com/go&#45;playground/\n\n\n\n\nassert/v2 -->
<g id="node14" class="node">
<title>github.com/go&#45;playground/\n\n\n\n\nassert/v2</title>
<text text-anchor="middle" x="1685.65" y="-2513.05" font-family="Helvetica,sans-Serif" font-size="24.00">github.com/go&#45;playground/</text>
<text text-anchor="middle" x="1685.65" y="-2375.05" font-family="Helvetica,sans-Serif" font-size="24.00">assert/v2</text>
</g>
<!-- github.com/go&#45;playground/\n\n\n\n\nvalidator/v10&#45;&gt;github.com/go&#45;playground/\n\n\n\n\nassert/v2 -->
<g id="edge12" class="edge">
<title>github.com/go&#45;playground/\n\n\n\n\nvalidator/v10&#45;&gt;github.com/go&#45;playground/\n\n\n\n\nassert/v2</title>
<path fill="none" stroke="black" d="M2029.01,-1972.35C1954.65,-2075.84 1830.45,-2248.72 1753.56,-2355.73"/>
<polygon fill="black" stroke="black" points="1750.64,-2353.79 1747.65,-2363.96 1756.33,-2357.88 1750.64,-2353.79"/>
</g>
<!-- github.com/leodido/\n\n\n\n\ngo&#45;urn -->
<g id="node15" class="node">
<title>github.com/leodido/\n\n\n\n\ngo&#45;urn</title>
<text text-anchor="middle" x="2558.3" y="-2028.73" font-family="Helvetica,sans-Serif" font-size="24.00">github.com/leodido/</text>
<text text-anchor="middle" x="2558.3" y="-1890.73" font-family="Helvetica,sans-Serif" font-size="24.00">go&#45;urn</text>
</g>
<!-- github.com/go&#45;playground/\n\n\n\n\nvalidator/v10&#45;&gt;github.com/leodido/\n\n\n\n\ngo&#45;urn -->
<g id="edge15" class="edge">
<title>github.com/go&#45;playground/\n\n\n\n\nvalidator/v10&#45;&gt;github.com/leodido/\n\n\n\n\ngo&#45;urn</title>
<path fill="none" stroke="black" d="M2262.69,-1915.4C2314.33,-1924.22 2370.32,-1933.8 2419.54,-1942.21"/>
<polygon fill="black" stroke="black" points="2419.16,-1945.7 2429.61,-1943.93 2420.34,-1938.8 2419.16,-1945.7"/>
</g>
<!-- golang.org/x/crypto -->
<g id="node16" class="node">
<title>golang.org/x/crypto</title>
<text text-anchor="middle" x="1602.18" y="-1425.04" font-family="Helvetica,sans-Serif" font-size="24.00">golang.org/x/crypto</text>
</g>
<!-- github.com/go&#45;playground/\n\n\n\n\nvalidator/v10&#45;&gt;golang.org/x/crypto -->
<g id="edge16" class="edge">
<title>github.com/go&#45;playground/\n\n\n\n\nvalidator/v10&#45;&gt;golang.org/x/crypto</title>
<path fill="none" stroke="black" d="M1998.49,-1799.97C1884.69,-1694.08 1698.09,-1520.48 1629,-1456.2"/>
<polygon fill="black" stroke="black" points="1631.26,-1453.51 1621.55,-1449.26 1626.49,-1458.64 1631.26,-1453.51"/>
</g>
<!-- github.com/json&#45;iterator/\n\n\n\n\ngo&#45;&gt;github.com/stretchr/\n\n\n\n\ntestify -->
<g id="edge21" class="edge">
<title>github.com/json&#45;iterator/\n\n\n\n\ngo&#45;&gt;github.com/stretchr/\n\n\n\n\ntestify</title>
<path fill="none" stroke="black" d="M3215.14,-1489.83C3222.6,-1588.57 3234.8,-1750.02 3242.56,-1852.8"/>
<polygon fill="black" stroke="black" points="3239.08,-1853.16 3243.32,-1862.87 3246.06,-1852.64 3239.08,-1853.16"/>
</g>
<!-- github.com/json&#45;iterator/\n\n\n\n\ngo&#45;&gt;github.com/davecgh/\n\n\n\n\ngo&#45;spew -->
<g id="edge17" class="edge">
<title>github.com/json&#45;iterator/\n\n\n\n\ngo&#45;&gt;github.com/davecgh/\n\n\n\n\ngo&#45;spew</title>
<path fill="none" stroke="black" d="M3362.66,-1489.85C3417.48,-1520.49 3478.98,-1554.88 3533.02,-1585.09"/>
<polygon fill="black" stroke="black" points="3531.54,-1588.27 3541.98,-1590.09 3534.95,-1582.16 3531.54,-1588.27"/>
</g>
<!-- github.com/google/\n\n\n\n\ngofuzz -->
<g id="node18" class="node">
<title>github.com/google/\n\n\n\n\ngofuzz</title>
<text text-anchor="middle" x="3836.14" y="-1147.91" font-family="Helvetica,sans-Serif" font-size="24.00">github.com/google/</text>
<text text-anchor="middle" x="3836.14" y="-1009.91" font-family="Helvetica,sans-Serif" font-size="24.00">gofuzz</text>
</g>
<!-- github.com/json&#45;iterator/\n\n\n\n\ngo&#45;&gt;github.com/google/\n\n\n\n\ngofuzz -->
<g id="edge18" class="edge">
<title>github.com/json&#45;iterator/\n\n\n\n\ngo&#45;&gt;github.com/google/\n\n\n\n\ngofuzz</title>
<path fill="none" stroke="black" d="M3367.79,-1322.93C3470.87,-1270.59 3603.63,-1203.17 3701.46,-1153.5"/>
<polygon fill="black" stroke="black" points="3703.19,-1156.55 3710.52,-1148.9 3700.02,-1150.3 3703.19,-1156.55"/>
</g>
<!-- github.com/modern&#45;go/\n\n\n\n\nconcurrent -->
<g id="node19" class="node">
<title>github.com/modern&#45;go/\n\n\n\n\nconcurrent</title>
<text text-anchor="middle" x="2925.6" y="-1286.52" font-family="Helvetica,sans-Serif" font-size="24.00">github.com/modern&#45;go/</text>
<text text-anchor="middle" x="2925.6" y="-1148.52" font-family="Helvetica,sans-Serif" font-size="24.00">concurrent</text>
</g>
<!-- github.com/json&#45;iterator/\n\n\n\n\ngo&#45;&gt;github.com/modern&#45;go/\n\n\n\n\nconcurrent -->
<g id="edge19" class="edge">
<title>github.com/json&#45;iterator/\n\n\n\n\ngo&#45;&gt;github.com/modern&#45;go/\n\n\n\n\nconcurrent</title>
<path fill="none" stroke="black" d="M3073.33,-1317.69C3072.05,-1316.87 3070.76,-1316.05 3069.47,-1315.23"/>
<polygon fill="black" stroke="black" points="3071.28,-1312.23 3060.96,-1309.82 3067.52,-1318.14 3071.28,-1312.23"/>
</g>
<!-- github.com/modern&#45;go/\n\n\n\n\nreflect2 -->
<g id="node20" class="node">
<title>github.com/modern&#45;go/\n\n\n\n\nreflect2</title>
<text text-anchor="middle" x="2934.96" y="-1065.25" font-family="Helvetica,sans-Serif" font-size="24.00">github.com/modern&#45;go/</text>
<text text-anchor="middle" x="2934.96" y="-927.25" font-family="Helvetica,sans-Serif" font-size="24.00">reflect2</text>
</g>
<!-- github.com/json&#45;iterator/\n\n\n\n\ngo&#45;&gt;github.com/modern&#45;go/\n\n\n\n\nreflect2 -->
<g id="edge20" class="edge">
<title>github.com/json&#45;iterator/\n\n\n\n\ngo&#45;&gt;github.com/modern&#45;go/\n\n\n\n\nreflect2</title>
<path fill="none" stroke="black" d="M3149.92,-1317.65C3105.72,-1252.84 3045.15,-1164.03 2999.57,-1097.19"/>
<polygon fill="black" stroke="black" points="3002.34,-1095.03 2993.81,-1088.74 2996.55,-1098.98 3002.34,-1095.03"/>
</g>
<!-- golang.org/x/sys -->
<g id="node21" class="node">
<title>golang.org/x/sys</title>
<text text-anchor="middle" x="1844.03" y="-1106.58" font-family="Helvetica,sans-Serif" font-size="24.00">golang.org/x/sys</text>
</g>
<!-- github.com/mattn/\n\n\n\n\ngo&#45;isatty&#45;&gt;golang.org/x/sys -->
<g id="edge23" class="edge">
<title>github.com/mattn/\n\n\n\n\ngo&#45;isatty&#45;&gt;golang.org/x/sys</title>
<path fill="none" stroke="black" d="M2065.49,-1136.31C2031.98,-1132.75 1995.67,-1128.89 1962.33,-1125.35"/>
<polygon fill="black" stroke="black" points="1962.4,-1121.84 1952.09,-1124.26 1961.66,-1128.8 1962.4,-1121.84"/>
</g>
<!-- github.com/ugorji/\n\n\n\n\ngo -->
<g id="node24" class="node">
<title>github.com/ugorji/\n\n\n\n\ngo</title>
<text text-anchor="middle" x="2440.54" y="-148.8" font-family="Helvetica,sans-Serif" font-size="24.00">github.com/ugorji/</text>
<text text-anchor="middle" x="2440.54" y="-10.8" font-family="Helvetica,sans-Serif" font-size="24.00">go</text>
</g>
<!-- github.com/ugorji/\n\n\n\n\ngo/codec&#45;&gt;github.com/ugorji/\n\n\n\n\ngo -->
<g id="edge29" class="edge">
<title>github.com/ugorji/\n\n\n\n\ngo/codec&#45;&gt;github.com/ugorji/\n\n\n\n\ngo</title>
<path fill="none" stroke="black" d="M2475.32,-684.93C2471.59,-556.57 2459.57,-316.19 2450.26,-182.29"/>
<polygon fill="black" stroke="black" points="2453.73,-181.78 2449.53,-172.05 2446.75,-182.27 2453.73,-181.78"/>
</g>
<!-- gopkg.in/check.v1 -->
<g id="node27" class="node">
<title>gopkg.in/check.v1</title>
<text text-anchor="middle" x="2845.96" y="-2762.07" font-family="Helvetica,sans-Serif" font-size="24.00">gopkg.in/check.v1</text>
</g>
<!-- gopkg.in/yaml.v2&#45;&gt;gopkg.in/check.v1 -->
<g id="edge35" class="edge">
<title>gopkg.in/yaml.v2&#45;&gt;gopkg.in/check.v1</title>
<path fill="none" stroke="black" d="M2789.83,-2113.19C2797.75,-2205.64 2833.86,-2627.1 2843.55,-2740.25"/>
<polygon fill="black" stroke="black" points="2840.07,-2740.55 2844.41,-2750.21 2847.04,-2739.95 2840.07,-2740.55"/>
</g>
<!-- golang.org/x/text -->
<g id="node12" class="node">
<title>golang.org/x/text</title>
<text text-anchor="middle" x="703.06" y="-1836.45" font-family="Helvetica,sans-Serif" font-size="24.00">golang.org/x/text</text>
</g>
<!-- github.com/go&#45;playground/\n\n\n\n\nlocales&#45;&gt;golang.org/x/text -->
<g id="edge10" class="edge">
<title>github.com/go&#45;playground/\n\n\n\n\nlocales&#45;&gt;golang.org/x/text</title>
<path fill="none" stroke="black" d="M1291.6,-1778.68C1149.64,-1794.11 951.47,-1815.65 825.2,-1829.38"/>
<polygon fill="black" stroke="black" points="824.67,-1825.91 815.11,-1830.47 825.43,-1832.87 824.67,-1825.91"/>
</g>
<!-- golang.org/x/tools -->
<g id="node26" class="node">
<title>golang.org/x/tools</title>
<text text-anchor="middle" x="118" y="-2006.25" font-family="Helvetica,sans-Serif" font-size="24.00">golang.org/x/tools</text>
</g>
<!-- golang.org/x/text&#45;&gt;golang.org/x/tools -->
<g id="edge34" class="edge">
<title>golang.org/x/text&#45;&gt;golang.org/x/tools</title>
<path fill="none" stroke="black" d="M641,-1860.66C531.84,-1892.34 306.08,-1957.86 190.15,-1991.51"/>
<polygon fill="black" stroke="black" points="188.93,-1988.22 180.3,-1994.37 190.88,-1994.94 188.93,-1988.22"/>
</g>
<!-- github.com/go&#45;playground/\n\n\n\n\nuniversal&#45;translator&#45;&gt;github.com/go&#45;playground/\n\n\n\n\nlocales -->
<g id="edge11" class="edge">
<title>github.com/go&#45;playground/\n\n\n\n\nuniversal&#45;translator&#45;&gt;github.com/go&#45;playground/\n\n\n\n\nlocales</title>
<path fill="none" stroke="black" d="M1642.58,-1732.39C1642.41,-1732.42 1642.25,-1732.44 1642.09,-1732.47"/>
<polygon fill="black" stroke="black" points="1644.1,-1728.62 1634.75,-1733.6 1645.16,-1735.53 1644.1,-1728.62"/>
</g>
<!-- github.com/leodido/\n\n\n\n\ngo&#45;urn&#45;&gt;github.com/stretchr/\n\n\n\n\ntestify -->
<g id="edge22" class="edge">
<title>github.com/leodido/\n\n\n\n\ngo&#45;urn&#45;&gt;github.com/stretchr/\n\n\n\n\ntestify</title>
<path fill="none" stroke="black" d="M2687.15,-1962.77C2806.69,-1959.84 2984.24,-1955.48 3107.81,-1952.45"/>
<polygon fill="black" stroke="black" points="3108.19,-1955.94 3118.1,-1952.19 3108.02,-1948.94 3108.19,-1955.94"/>
</g>
<!-- golang.org/x/crypto&#45;&gt;golang.org/x/sys -->
<g id="edge31" class="edge">
<title>golang.org/x/crypto&#45;&gt;golang.org/x/sys</title>
<path fill="none" stroke="black" d="M1615.88,-1413.21C1656.44,-1359.8 1776.09,-1202.25 1823.93,-1139.25"/>
<polygon fill="black" stroke="black" points="1826.93,-1141.09 1830.19,-1131.01 1821.35,-1136.86 1826.93,-1141.09"/>
</g>
<!-- golang.org/x/net -->
<g id="node25" class="node">
<title>golang.org/x/net</title>
<text text-anchor="middle" x="911.71" y="-1474.25" font-family="Helvetica,sans-Serif" font-size="24.00">golang.org/x/net</text>
</g>
<!-- golang.org/x/crypto&#45;&gt;golang.org/x/net -->
<g id="edge30" class="edge">
<title>golang.org/x/crypto&#45;&gt;golang.org/x/net</title>
<path fill="none" stroke="black" d="M1475.16,-1434.92C1348.07,-1442.08 1154.13,-1455.95 1030.16,-1466.75"/>
<polygon fill="black" stroke="black" points="1029.53,-1463.3 1019.87,-1467.66 1030.14,-1470.27 1029.53,-1463.3"/>
</g>
<!-- github.com/ugorji/\n\n\n\n\ngo&#45;&gt;github.com/ugorji/\n\n\n\n\ngo/codec -->
<g id="edge28" class="edge">
<title>github.com/ugorji/\n\n\n\n\ngo&#45;&gt;github.com/ugorji/\n\n\n\n\ngo/codec</title>
<path fill="none" stroke="black" d="M2440.22,-172.33C2443.95,-300.69 2455.97,-541.08 2465.28,-674.97"/>
<polygon fill="black" stroke="black" points="2461.81,-675.48 2466.01,-685.21 2468.79,-674.99 2461.81,-675.48"/>
</g>
<!-- golang.org/x/net&#45;&gt;golang.org/x/text -->
<g id="edge33" class="edge">
<title>golang.org/x/net&#45;&gt;golang.org/x/text</title>
<path fill="none" stroke="black" d="M901.07,-1498.91C866.82,-1558.38 759.24,-1745.13 718.71,-1815.48"/>
<polygon fill="black" stroke="black" points="715.63,-1813.82 713.67,-1824.23 721.7,-1817.31 715.63,-1813.82"/>
</g>
<!-- golang.org/x/net&#45;&gt;golang.org/x/crypto -->
<g id="edge32" class="edge">
<title>golang.org/x/net&#45;&gt;golang.org/x/crypto</title>
<path fill="none" stroke="black" d="M1019.95,-1477.81C1140.06,-1471.34 1334.12,-1457.67 1464.83,-1446.57"/>
<polygon fill="black" stroke="black" points="1465.25,-1450.05 1474.91,-1445.71 1464.65,-1443.07 1465.25,-1450.05"/>
</g>
<!-- hello&#45;world -->
<g id="node28" class="node">
<title>hello&#45;world</title>
<text text-anchor="middle" x="2372.25" y="-1458.44" font-family="Helvetica,sans-Serif" font-size="24.00">hello&#45;world</text>
</g>
<!-- hello&#45;world&#45;&gt;github.com/gin&#45;contrib/\n\n\n\n\nsse -->
<g id="edge36" class="edge">
<title>hello&#45;world&#45;&gt;github.com/gin&#45;contrib/\n\n\n\n\nsse</title>
<path fill="none" stroke="black" d="M2406.53,-1482.67C2471.4,-1516.78 2615.8,-1592.72 2729.76,-1652.65"/>
<polygon fill="black" stroke="black" points="2728.47,-1655.92 2738.95,-1657.48 2731.73,-1649.73 2728.47,-1655.92"/>
</g>
<!-- hello&#45;world&#45;&gt;github.com/gin&#45;gonic/\n\n\n\n\ngin -->
<g id="edge37" class="edge">
<title>hello&#45;world&#45;&gt;github.com/gin&#45;gonic/\n\n\n\n\ngin</title>
<path fill="none" stroke="black" d="M2447.6,-1474.76C2464.19,-1476.98 2482.32,-1479.42 2500.7,-1481.89"/>
<polygon fill="black" stroke="black" points="2500.25,-1485.36 2510.63,-1483.22 2501.18,-1478.42 2500.25,-1485.36"/>
</g>
<!-- hello&#45;world&#45;&gt;github.com/go&#45;playground/\n\n\n\n\nvalidator/v10 -->
<g id="edge40" class="edge">
<title>hello&#45;world&#45;&gt;github.com/go&#45;playground/\n\n\n\n\nvalidator/v10</title>
<path fill="none" stroke="black" d="M2360.17,-1482.75C2325.19,-1535.15 2222.05,-1689.7 2154.08,-1791.54"/>
<polygon fill="black" stroke="black" points="2151.08,-1789.74 2148.44,-1800 2156.9,-1793.63 2151.08,-1789.74"/>
</g>
<!-- hello&#45;world&#45;&gt;github.com/golang/\n\n\n\n\nprotobuf -->
<g id="edge41" class="edge">
<title>hello&#45;world&#45;&gt;github.com/golang/\n\n\n\n\nprotobuf</title>
<path fill="none" stroke="black" d="M2379.76,-1446.45C2399.65,-1398.31 2454.75,-1264.9 2493.02,-1172.27"/>
<polygon fill="black" stroke="black" points="2496.31,-1173.46 2496.9,-1162.88 2489.84,-1170.78 2496.31,-1173.46"/>
</g>
<!-- hello&#45;world&#45;&gt;github.com/json&#45;iterator/\n\n\n\n\ngo -->
<g id="edge42" class="edge">
<title>hello&#45;world&#45;&gt;github.com/json&#45;iterator/\n\n\n\n\ngo</title>
<path fill="none" stroke="black" d="M2447.58,-1459.15C2580.19,-1449.5 2858.37,-1429.24 3039.15,-1416.08"/>
<polygon fill="black" stroke="black" points="3039.58,-1419.56 3049.3,-1415.34 3039.07,-1412.58 3039.58,-1419.56"/>
</g>
<!-- hello&#45;world&#45;&gt;github.com/mattn/\n\n\n\n\ngo&#45;isatty -->
<g id="edge44" class="edge">
<title>hello&#45;world&#45;&gt;github.com/mattn/\n\n\n\n\ngo&#45;isatty</title>
<path fill="none" stroke="black" d="M2361.48,-1446.32C2338.8,-1407.73 2284.75,-1315.78 2242.73,-1244.31"/>
<polygon fill="black" stroke="black" points="2245.5,-1242.1 2237.41,-1235.25 2239.46,-1245.65 2245.5,-1242.1"/>
</g>
<!-- hello&#45;world&#45;&gt;github.com/ugorji/\n\n\n\n\ngo/codec -->
<g id="edge47" class="edge">
<title>hello&#45;world&#45;&gt;github.com/ugorji/\n\n\n\n\ngo/codec</title>
<path fill="none" stroke="black" d="M2374.95,-1446.45C2386.95,-1365.45 2436.02,-1034.3 2460.7,-867.8"/>
<polygon fill="black" stroke="black" points="2464.21,-867.96 2462.21,-857.56 2457.28,-866.94 2464.21,-867.96"/>
</g>
<!-- hello&#45;world&#45;&gt;gopkg.in/yaml.v2 -->
<g id="edge50" class="edge">
<title>hello&#45;world&#45;&gt;gopkg.in/yaml.v2</title>
<path fill="none" stroke="black" d="M2384.25,-1482.83C2443.03,-1571.91 2700.46,-1962.08 2770.59,-2068.36"/>
<polygon fill="black" stroke="black" points="2767.81,-2070.5 2776.24,-2076.92 2773.65,-2066.64 2767.81,-2070.5"/>
</g>
<!-- hello&#45;world&#45;&gt;github.com/go&#45;playground/\n\n\n\n\nlocales -->
<g id="edge38" class="edge">
<title>hello&#45;world&#45;&gt;github.com/go&#45;playground/\n\n\n\n\nlocales</title>
<path fill="none" stroke="black" d="M2316.75,-1482.67C2185.95,-1525.17 1853.65,-1633.14 1644.34,-1701.15"/>
<polygon fill="black" stroke="black" points="1643.21,-1697.84 1634.78,-1704.26 1645.37,-1704.5 1643.21,-1697.84"/>
</g>
<!-- hello&#45;world&#45;&gt;github.com/go&#45;playground/\n\n\n\n\nuniversal&#45;translator -->
<g id="edge39" class="edge">
<title>hello&#45;world&#45;&gt;github.com/go&#45;playground/\n\n\n\n\nuniversal&#45;translator</title>
<path fill="none" stroke="black" d="M2330.32,-1482.78C2259.92,-1513.22 2114.04,-1576.31 1995.3,-1627.67"/>
<polygon fill="black" stroke="black" points="1993.86,-1624.47 1986.07,-1631.66 1996.64,-1630.9 1993.86,-1624.47"/>
</g>
<!-- hello&#45;world&#45;&gt;github.com/leodido/\n\n\n\n\ngo&#45;urn -->
<g id="edge43" class="edge">
<title>hello&#45;world&#45;&gt;github.com/leodido/\n\n\n\n\ngo&#45;urn</title>
<path fill="none" stroke="black" d="M2378.98,-1482.78C2401.82,-1544.32 2477.47,-1748.15 2522.89,-1870.53"/>
<polygon fill="black" stroke="black" points="2519.61,-1871.77 2526.37,-1879.93 2526.18,-1869.33 2519.61,-1871.77"/>
</g>
<!-- hello&#45;world&#45;&gt;golang.org/x/crypto -->
<g id="edge48" class="edge">
<title>hello&#45;world&#45;&gt;golang.org/x/crypto</title>
<path fill="none" stroke="black" d="M2297.01,-1461.38C2167.92,-1455.78 1902.43,-1444.26 1739.58,-1437.2"/>
<polygon fill="black" stroke="black" points="1739.64,-1433.7 1729.49,-1436.76 1739.33,-1440.69 1739.64,-1433.7"/>
</g>
<!-- hello&#45;world&#45;&gt;github.com/modern&#45;go/\n\n\n\n\nconcurrent -->
<g id="edge45" class="edge">
<title>hello&#45;world&#45;&gt;github.com/modern&#45;go/\n\n\n\n\nconcurrent</title>
<path fill="none" stroke="black" d="M2413.84,-1446.53C2487.58,-1414.43 2644.82,-1345.97 2765.67,-1293.35"/>
<polygon fill="black" stroke="black" points="2767.27,-1296.47 2775.04,-1289.27 2764.48,-1290.06 2767.27,-1296.47"/>
</g>
<!-- hello&#45;world&#45;&gt;github.com/modern&#45;go/\n\n\n\n\nreflect2 -->
<g id="edge46" class="edge">
<title>hello&#45;world&#45;&gt;github.com/modern&#45;go/\n\n\n\n\nreflect2</title>
<path fill="none" stroke="black" d="M2394.31,-1446.52C2464.39,-1388.96 2685.37,-1207.46 2822.16,-1095.1"/>
<polygon fill="black" stroke="black" points="2824.73,-1097.52 2830.23,-1088.47 2820.28,-1092.12 2824.73,-1097.52"/>
</g>
<!-- hello&#45;world&#45;&gt;golang.org/x/sys -->
<g id="edge49" class="edge">
<title>hello&#45;world&#45;&gt;golang.org/x/sys</title>
<path fill="none" stroke="black" d="M2344.96,-1446.46C2256.68,-1387.66 1978.81,-1202.56 1879.64,-1136.5"/>
<polygon fill="black" stroke="black" points="1881.42,-1133.48 1871.16,-1130.85 1877.54,-1139.3 1881.42,-1133.48"/>
</g>
</g>
</svg>
